<svg width="26" height="26" viewBox="0 0 26 26" fill="none" xmlns="http://www.w3.org/2000/svg"><path d="M12.994 26h.012C20.183 26 26 20.183 26 13.006V13c0-7.18-5.82-13-13-13S0 5.82 0 13v.006C0 20.183 5.817 26 12.994 26z" fill="#A9B0C6"/><path d="M18.3 12.872c-.461-.517-1.135-.86-1.859-1.027v-.069c.517-.23.968-.592 1.271-1.083a3.14 3.14 0 00.463-1.681c0-.543-.106-1.023-.325-1.439a2.431 2.431 0 00-.995-.996 3.884 3.884 0 00-1.32-.462c-.47-.072-1.159-.115-2.07-.115H9v13h5.048c.862 0 1.572-.123 2.13-.285.559-.161 1.071-.454 1.538-.835a3.47 3.47 0 00.942-1.215c.233-.485.342-1.054.342-1.695 0-.878-.239-1.58-.7-2.098zm-6.2-4.508h.298c.556 0 .974.012 1.255.02.28.01.523.064.729.156a.952.952 0 01.48.478c.102.22.153.435.153.643 0 .283-.047.532-.141.745-.095.214-.267.382-.517.503-.228.11-.449.195-.663.206-.214.012-.587.042-1.121.042h-.472V8.364zm3.503 7.376a1.26 1.26 0 01-.621.56c-.322.144-.639.265-.95.276-.311.012-.873.06-1.684.06h-.247v-3.33h.656c.555 0 .998.01 1.329.02.33.008.59.053.78.128.31.115.544.287.7.513.155.225.233.538.233.936 0 .312-.065.592-.196.837z" fill="#F6F7FA"/></svg>