<svg width="26" height="26" viewBox="0 0 26 26" fill="none" xmlns="http://www.w3.org/2000/svg"><path fill-rule="evenodd" clip-rule="evenodd" d="M13 0C5.82 0 0 5.82 0 13s5.82 13 13 13 13-5.82 13-13S20.18 0 13 0zm-2.859 6.109c.74-.034.976-.042 2.859-.042h-.002c1.883 0 2.119.008 2.858.042.738.033 1.243.15 1.685.322a3.39 3.39 0 011.227.8c.386.385.623.771.8 1.227.171.441.288.945.323 1.683.033.74.042.976.042 2.859s-.01 2.119-.042 2.858c-.035.738-.152 1.242-.322 1.683a3.405 3.405 0 01-.8 1.228 3.391 3.391 0 01-1.228.8c-.441.172-.945.289-1.684.323-.74.033-.975.041-2.858.041s-2.119-.008-2.859-.041c-.738-.034-1.242-.151-1.683-.323a3.393 3.393 0 01-1.227-.8 3.398 3.398 0 01-.8-1.228c-.171-.44-.288-.945-.322-1.683-.034-.74-.042-.975-.042-2.858s.009-2.12.042-2.859c.033-.738.15-1.242.322-1.683.177-.456.414-.842.8-1.228a3.395 3.395 0 011.228-.8c.441-.17.945-.288 1.683-.321z" fill="#A9B0C6"/><path fill-rule="evenodd" clip-rule="evenodd" d="M12.379 7.316H13c1.85 0 2.07.007 2.801.04.676.03 1.043.144 1.288.239.323.125.554.276.796.518.243.243.393.474.52.798.094.244.207.61.238 1.287.033.73.04.95.04 2.8 0 1.85-.007 2.07-.04 2.801-.031.676-.144 1.043-.239 1.287a2.143 2.143 0 01-.519.797 2.144 2.144 0 01-.796.518c-.244.096-.612.208-1.288.24-.73.032-.95.04-2.801.04-1.852 0-2.071-.008-2.802-.04-.676-.032-1.043-.145-1.288-.24a2.147 2.147 0 01-.797-.518 2.15 2.15 0 01-.519-.797c-.095-.244-.208-.611-.238-1.287-.034-.731-.04-.95-.04-2.802s.006-2.07.04-2.801c.03-.676.143-1.043.238-1.287a2.14 2.14 0 01.52-.798c.242-.242.473-.393.796-.519.245-.095.612-.208 1.288-.239.64-.029.887-.037 2.18-.039v.002zm4.32 1.151a.832.832 0 100 1.664.832.832 0 000-1.664zM9.442 13a3.56 3.56 0 117.121 0 3.56 3.56 0 01-7.121 0z" fill="#A9B0C6"/><path d="M12.999 10.688a2.311 2.311 0 110 4.623 2.311 2.311 0 010-4.623z" fill="#A9B0C6"/></svg>