<svg xmlns="http://www.w3.org/2000/svg" width="113" height="27" viewBox="0 0 113 27" fill="none"><g clip-path="url(#clip0_8_121)"><path d="M13.164 26.174c-.31 0-.427-.158-.427-.434l.35-4.454H7L4.752 25.74a.716.716 0 01-.659.434H.49c-.388 0-.504-.158-.272-.513l12.56-23.337c.116-.276.426-.434.697-.434h4.729c.31 0 .465.119.465.434l-1.24 23.337c-.04.316-.233.513-.62.513h-3.644zm1.085-18.962L8.94 17.777h4.341l.97-10.565zM35.18 1.89c3.218 0 4.458 1.498 3.606 4.376l-.97 3.233a.638.638 0 01-.697.473H33.59c-.348 0-.504-.197-.387-.473l.697-2.366c.233-.788-.077-1.222-1.007-1.222h-1.628a1.602 1.602 0 00-1.706 1.222l-1.24 4.179 7.403 2.365c.504.197.737.552.543 1.104l-2.093 7.017c-.853 2.838-2.985 4.376-6.202 4.376h-3.799c-3.178 0-4.457-1.538-3.605-4.376l.93-3.154a.638.638 0 01.698-.473h3.566c.388 0 .504.158.388.473l-.698 2.326c-.232.828.155 1.222 1.008 1.222h1.628c.892 0 1.473-.394 1.706-1.222l1.201-4.02-7.364-2.405c-.427-.08-.737-.473-.66-.907 0-.079.04-.158.078-.197l2.132-7.175c.853-2.838 3.023-4.376 6.202-4.376h3.799zm17.172.473a.638.638 0 01.698-.473h3.527c.427 0 .543.197.427.473l-6.9 23.338a.638.638 0 01-.698.473H45.84c-.349 0-.504-.197-.387-.473l2.868-9.659h-4.38l-2.83 9.659a.638.638 0 01-.697.473h-3.49c-.425 0-.542-.197-.425-.473l6.9-23.298a.638.638 0 01.697-.473h3.527c.35 0 .504.197.388.473l-2.869 9.658h4.38l2.83-9.698zm21.126-.473c.271-.04.504.158.504.395v.197l-5.698 19.316c-.853 2.838-2.985 4.376-6.202 4.376h-3.838c-3.217 0-4.457-1.538-3.605-4.376l5.698-19.316a.979.979 0 01.892-.592h3.256c.388 0 .582.276.504.592L59.523 20.93c-.232.828.117 1.222 1.008 1.222h1.783c.892 0 1.473-.394 1.706-1.222l5.465-18.45c.155-.354.466-.59.853-.59h3.14zm18.102 0c.349 0 .504.197.387.473l-6.9 23.298a.638.638 0 01-.697.473h-3.372c-.31 0-.466-.118-.504-.394l-1.357-12.97h-.155l-3.799 12.852a.638.638 0 01-.697.473h-3.528c-.349 0-.504-.197-.387-.473l6.9-23.298a.638.638 0 01.697-.473h3.372c.31 0 .465.118.504.394l1.357 12.89h.194l3.799-12.811a.638.638 0 01.697-.473h3.489v.04z" fill="#474A53"/><path d="M98.983 6.266c.814-2.838 2.985-4.376 6.202-4.376h3.799c3.217 0 4.458 1.498 3.605 4.376l-4.613 15.532c-.853 2.838-2.985 4.376-6.202 4.376h-3.799c-3.217 0-4.457-1.538-3.604-4.376l4.612-15.532zm3.101 16.005c.892 0 1.473-.394 1.706-1.222l4.147-14.034c.233-.788-.116-1.222-1.007-1.222h-1.977c-.892 0-1.473.434-1.706 1.222L99.1 21.05c-.233.828.116 1.222 1.007 1.222h1.977z" fill="#E73A28"/><path d="M96.619 6.266c.853-2.838 2.985-4.376 6.202-4.376h3.799c3.217 0 4.457 1.498 3.604 4.376l-4.612 15.532c-.853 2.838-2.985 4.376-6.202 4.376h-3.8c-3.217 0-4.458-1.538-3.605-4.376L96.62 6.266zm3.1 16.005c.892 0 1.474-.394 1.706-1.222l4.148-14.034c.233-.788-.116-1.222-1.008-1.222h-1.977c-.891 0-1.473.434-1.705 1.222L96.735 21.05c-.232.828.116 1.222 1.008 1.222h1.977z" fill="#FDFDFC"/><path d="M94.216 6.266c.852-2.838 2.984-4.376 6.202-4.376h3.798c3.218 0 4.458 1.498 3.605 4.376l-4.613 15.532c-.852 2.838-2.984 4.376-6.201 4.376h-3.8c-3.216 0-4.457-1.538-3.604-4.376l4.613-15.532zm3.14 16.005c.89 0 1.472-.394 1.705-1.222l4.147-14.034c.233-.788-.116-1.222-1.007-1.222h-1.977c-.892 0-1.473.434-1.706 1.222L94.371 21.05c-.233.828.116 1.222 1.008 1.222h1.976z" fill="#474A53"/></g><defs><clipPath id="clip0_8_121"><path fill="#fff" transform="translate(0 .86)" d="M0 0h113v25.488H0z"/></clipPath></defs></svg>