<svg width="166" height="37" viewBox="0 0 166 37" fill="none" xmlns="http://www.w3.org/2000/svg"><g clip-path="url(#clip0_0_91)"><path d="M19.877 36.373c-.451 0-.62-.223-.62-.615l.507-6.326h-8.855l-3.271 6.326c-.17.392-.564.615-.96.615H1.435c-.564 0-.734-.223-.395-.727l18.274-33.14c.169-.391.62-.615 1.015-.615h6.88c.452 0 .678.168.678.615l-1.805 33.14c-.057.448-.339.727-.902.727h-5.302zm1.579-26.925L13.729 24.45h6.317l1.41-15.002zM51.91 1.89c4.682 0 6.487 2.128 5.246 6.214l-1.41 4.59c-.113.448-.564.728-1.015.672h-5.133c-.507 0-.733-.28-.564-.671l1.015-3.36c.339-1.119-.112-1.735-1.466-1.735h-2.369a2.326 2.326 0 00-2.482 1.736l-1.804 5.934L52.7 18.628c.733.28 1.072.784.79 1.568l-3.046 9.964c-1.24 4.03-4.343 6.213-9.024 6.213h-5.527c-4.625 0-6.486-2.183-5.245-6.213L32 25.68c.113-.447.564-.727 1.015-.671h5.19c.563 0 .732.224.563.671l-1.015 3.303c-.338 1.176.226 1.736 1.467 1.736h2.368c1.297 0 2.143-.56 2.482-1.736l1.748-5.71-10.716-3.414c-.62-.112-1.072-.672-.959-1.288 0-.112.057-.224.113-.28L37.36 8.104c1.241-4.03 4.4-6.213 9.024-6.213h5.528zm24.994.68c.113-.448.564-.728 1.016-.672h5.132c.62 0 .79.28.62.671L73.633 35.71c-.113.448-.564.727-1.015.672h-5.189c-.508 0-.733-.28-.564-.672l4.174-13.715h-6.374L60.548 35.71c-.113.448-.564.727-1.015.672h-5.076c-.62 0-.79-.28-.62-.672L63.875 2.625c.113-.447.564-.727 1.015-.671h5.132c.508 0 .734.28.565.671L66.413 16.34h6.373l4.117-13.77zm30.725-.672c.395-.056.734.224.734.56v.28l-8.291 27.43c-1.241 4.03-4.343 6.213-9.024 6.213h-5.584c-4.681 0-6.486-2.184-5.245-6.214l8.29-27.43c.226-.503.734-.84 1.298-.84h4.737c.565 0 .847.393.734.84l-7.953 26.199c-.338 1.175.17 1.735 1.467 1.735h2.594c1.297 0 2.143-.56 2.482-1.735l7.952-26.199c.226-.503.677-.84 1.241-.84h4.568zm26.347-.003c.507 0 .733.28.564.672L124.501 35.65c-.113.448-.564.728-1.016.672h-4.907c-.451 0-.676-.168-.733-.56l-1.974-18.417h-.225l-5.528 18.249c-.113.448-.564.728-1.015.672h-5.132c-.508 0-.734-.28-.564-.672l10.039-33.083c.113-.448.564-.728 1.015-.672h4.907c.451 0 .677.168.733.56l1.974 18.305h.282l5.528-18.193c.112-.448.564-.728 1.015-.672h5.076v.056z" fill="#A9B0C6"/><path d="M144.759 8.104c1.184-4.03 4.343-6.213 9.024-6.213h5.527c4.681 0 6.487 2.127 5.246 6.213l-6.712 22.056c-1.241 4.03-4.344 6.213-9.025 6.213h-5.526c-4.682 0-6.487-2.183-5.246-6.213l6.712-22.056zm4.512 22.727c1.297 0 2.143-.56 2.482-1.735l6.034-19.928c.339-1.12-.169-1.735-1.465-1.735h-2.877c-1.298 0-2.143.615-2.482 1.735l-6.035 19.928c-.338 1.176.169 1.735 1.466 1.735h2.877z" fill="#E73A28"/><path d="M141.308 8.104c1.241-4.03 4.343-6.213 9.024-6.213h5.528c4.681 0 6.485 2.127 5.244 6.213l-6.711 22.056c-1.241 4.03-4.343 6.213-9.024 6.213h-5.527c-4.682 0-6.486-2.183-5.246-6.213l6.712-22.056zm4.512 22.727c1.297 0 2.144-.56 2.481-1.735l6.036-19.928c.339-1.12-.169-1.735-1.467-1.735h-2.877c-1.296 0-2.143.615-2.48 1.735l-6.036 19.928c-.338 1.176.169 1.735 1.467 1.735h2.876z" fill="#FDFDFC"/><path d="M137.814 8.104c1.241-4.03 4.343-6.213 9.025-6.213h5.526c4.683 0 6.487 2.127 5.246 6.213l-6.712 22.056c-1.24 4.03-4.342 6.213-9.024 6.213h-5.527c-4.681 0-6.486-2.183-5.245-6.213l6.711-22.056zm4.569 22.727c1.297 0 2.143-.56 2.482-1.735l6.034-19.928c.339-1.12-.169-1.735-1.465-1.735h-2.877c-1.298 0-2.144.615-2.482 1.735l-6.035 19.928c-.338 1.176.169 1.735 1.467 1.735h2.876z" fill="#A9B0C6"/></g><defs><clipPath id="clip0_0_91"><path fill="#fff" transform="translate(.726 .433)" d="M0 0h164.42v36.193H0z"/></clipPath></defs></svg>