<svg width="31" height="31" viewBox="0 0 31 31" fill="none" xmlns="http://www.w3.org/2000/svg"><path d="M15.262 0C6.832 0 0 6.832 0 15.262c0 8.424 6.832 15.256 15.256 15.256h.013c8.43 0 15.256-6.832 15.256-15.256C30.525 6.832 23.693 0 15.262 0z" fill="#51B6FF"/><path d="M21.64 9.01L7.143 14.5c-.793.23-.767 1.01-.179 1.202l3.63 1.13 1.393 4.264c.167.466.307.64.595.645.3.007.415-.108.735-.383.364-.345.927-.895 1.815-1.758l3.777 2.793c.697.384 1.202.186 1.374-.645l2.365-11.715c.256-1.023-.345-1.323-1.01-1.023zm-10.476 7.56l8.258-5.176c.409-.275.537.032.351.243l-6.851 6.161-.352 3.08-1.406-4.307z" fill="#fff"/></svg>