<svg width="31" height="31" viewBox="0 0 31 31" fill="none" xmlns="http://www.w3.org/2000/svg"><path d="M15.262 0C6.83 0 0 6.83 0 15.262c0 8.425 6.83 15.256 15.255 15.256h.015c8.425 0 15.255-6.83 15.255-15.256C30.525 6.83 23.688 0 15.262 0z" fill="#4EE818"/><path fill-rule="evenodd" clip-rule="evenodd" d="M15.671 5c-5.147 0-9.329 4.357-9.329 9.74 0 1.839.491 3.56 1.341 5.033L6 25l5.164-1.73a9.003 9.003 0 004.507 1.208c5.155 0 9.329-4.357 9.329-9.739C25 9.357 20.826 5 15.671 5zm0 17.849a7.515 7.515 0 01-4.27-1.336l-2.99.997.973-3.011a8.346 8.346 0 01-1.481-4.76c0-4.467 3.49-8.11 7.768-8.11 4.288 0 7.768 3.643 7.768 8.11 0 4.476-3.48 8.11-7.768 8.11zm4.375-5.895c-.237-.137-1.385-.778-1.596-.87-.219-.09-.377-.146-.543.101-.167.238-.64.788-.79.943-.14.165-.28.174-.517.046-.236-.137-.99-.43-1.867-1.309a7.24 7.24 0 01-1.263-1.776c-.131-.256 0-.384.123-.503.105-.11.245-.284.368-.421s.167-.238.255-.403c.087-.165.052-.311 0-.44-.062-.127-.491-1.363-.676-1.876-.175-.503-.377-.43-.517-.43-.14-.01-.298-.037-.456-.037a.857.857 0 00-.649.284c-.228.238-.859.815-.903 2.041-.044 1.218.763 2.435.877 2.609.114.165 1.552 2.82 3.937 3.909s2.393.76 2.832.732c.438-.018 1.429-.54 1.648-1.117.22-.567.237-1.07.184-1.172-.052-.11-.21-.174-.447-.31z" fill="#fff"/></svg>