<svg width="18" height="32" viewBox="0 0 18 32" fill="none" xmlns="http://www.w3.org/2000/svg">
<path d="M0.832026 0.882111C1.92865 -0.271206 3.70662 -0.271206 4.80325 0.88211L17.1677 13.8858C18.2644 15.0391 18.2644 16.909 17.1677 18.0623C16.0711 19.2157 14.2931 19.2157 13.1965 18.0623L0.832029 5.05864C-0.264594 3.90532 -0.264596 2.03543 0.832026 0.882111Z" fill="#ffffff"/>
<path d="M0.831988 31.1178C-0.264634 29.9645 -0.264634 28.0946 0.831988 26.9413L13.1965 13.9376C14.2931 12.7843 16.0711 12.7843 17.1677 13.9376C18.2643 15.0909 18.2643 16.9608 17.1677 18.1141L4.80321 31.1178C3.70659 32.2711 1.92861 32.2711 0.831988 31.1178Z" fill="#ffffff"/>
</svg>
