<svg width="26" height="26" viewBox="0 0 26 26" fill="none" xmlns="http://www.w3.org/2000/svg">
<path d="M12.9938 26H13.0062C20.1825 26 26 20.1825 26 13.0062V13C26 5.82031 20.1797 0 13 0C5.82032 0 0 5.82031 0 13V13.0062C0 20.1825 5.81746 26 12.9938 26Z" fill="#A9B0C6"/>
<path d="M18.3001 12.8721C17.8387 12.3553 17.1648 12.0129 16.4414 11.8453V11.776C16.9583 11.5452 17.4092 11.1839 17.7124 10.6928C18.0152 10.202 18.1748 9.64161 18.1748 9.01192C18.1748 8.46892 18.0692 7.98926 17.8497 7.57344C17.63 7.15763 17.3001 6.8254 16.8554 6.577C16.4442 6.34599 16.005 6.1874 15.5356 6.11524C15.0657 6.04283 14.3763 6 13.4649 6H9V19H14.0484C14.9099 19 15.6197 18.8772 16.1783 18.7155C16.7368 18.5538 17.2494 18.261 17.7161 17.88C18.1106 17.5623 18.4247 17.1501 18.6582 16.665C18.8914 16.1796 19 15.6112 19 14.9701C19 14.092 18.7613 13.3891 18.3001 12.8721ZM12.1006 8.3638H12.398C12.9536 8.3638 13.3718 8.376 13.6527 8.38457C13.9331 8.39313 14.1763 8.44764 14.382 8.54004C14.5985 8.63841 14.7583 8.79908 14.8612 9.01841C14.964 9.238 15.0155 9.45265 15.0155 9.66082C15.0155 9.94374 14.9683 10.1927 14.8737 10.4063C14.7793 10.6201 14.607 10.7878 14.3571 10.909C14.1288 11.0191 13.9081 11.104 13.6941 11.1154C13.4801 11.1271 13.1066 11.1572 12.573 11.1572H12.1006V8.3638ZM15.6032 15.7402C15.4724 15.986 15.2654 16.1721 14.982 16.2993C14.6597 16.4436 14.3431 16.5646 14.032 16.5762C13.7206 16.5877 13.1593 16.6365 12.3481 16.6365H12.1006V13.3058H12.7566C13.3121 13.3058 13.7553 13.3164 14.0859 13.3253C14.4165 13.3338 14.6764 13.379 14.8654 13.454C15.1765 13.5695 15.41 13.7413 15.5655 13.9666C15.7211 14.1919 15.799 14.5047 15.799 14.9034C15.799 15.2151 15.7336 15.4947 15.6032 15.7402Z" fill="#F6F7FA"/>
</svg>
