<svg width="26" height="26" viewBox="0 0 26 26" fill="none" xmlns="http://www.w3.org/2000/svg">
<path fill-rule="evenodd" clip-rule="evenodd" d="M13 0C5.8203 0 0 5.8203 0 13C0 20.1797 5.8203 26 13 26C20.1797 26 26 20.1797 26 13C26 5.8203 20.1797 0 13 0ZM10.141 6.10853C10.8806 6.07487 11.1169 6.06664 12.9999 6.06664H12.9977C14.8813 6.06664 15.1168 6.07487 15.8563 6.10853C16.5944 6.14233 17.0986 6.25919 17.5406 6.43064C17.997 6.60759 18.3827 6.84448 18.7684 7.23015C19.154 7.61553 19.3909 8.00236 19.5686 8.45838C19.739 8.89923 19.856 9.40305 19.8907 10.1412C19.9239 10.8807 19.9326 11.117 19.9326 13C19.9326 14.883 19.9239 15.1188 19.8907 15.8583C19.856 16.5962 19.739 17.1001 19.5686 17.5411C19.3909 17.997 19.154 18.3838 18.7684 18.7692C18.3831 19.1549 17.9969 19.3924 17.541 19.5694C17.0999 19.7409 16.5955 19.8578 15.8573 19.8916C15.1178 19.9252 14.8822 19.9335 12.999 19.9335C11.1162 19.9335 10.88 19.9252 10.1404 19.8916C9.40248 19.8578 8.8985 19.7409 8.45737 19.5694C8.00164 19.3924 7.61481 19.1549 7.22957 18.7692C6.84405 18.3838 6.60716 17.997 6.42992 17.541C6.25861 17.1001 6.14175 16.5963 6.10781 15.8582C6.0743 15.1186 6.06592 14.883 6.06592 13C6.06592 11.117 6.07458 10.8806 6.10766 10.141C6.14089 9.4032 6.25789 8.89923 6.42978 8.45823C6.60745 8.00236 6.84434 7.61553 7.23001 7.23015C7.61539 6.84463 8.00222 6.60774 8.45823 6.43064C8.89908 6.25919 9.40291 6.14233 10.141 6.10853Z" fill="#A9B0C6"/>
<path fill-rule="evenodd" clip-rule="evenodd" d="M12.3786 7.31606C12.4994 7.31588 12.6293 7.31593 12.7695 7.316L13.0006 7.31606C14.8518 7.31606 15.0712 7.32271 15.8023 7.35593C16.4783 7.38684 16.8452 7.4998 17.0896 7.5947C17.4131 7.72037 17.6438 7.87059 17.8863 8.11326C18.129 8.35593 18.2792 8.58704 18.4052 8.9106C18.5001 9.15472 18.6132 9.52161 18.644 10.1976C18.6772 10.9285 18.6844 11.1481 18.6844 12.9984C18.6844 14.8488 18.6772 15.0683 18.644 15.7992C18.613 16.4752 18.5001 16.8421 18.4052 17.0862C18.2795 17.4098 18.129 17.6402 17.8863 17.8827C17.6437 18.1254 17.4133 18.2756 17.0896 18.4013C16.8455 18.4966 16.4783 18.6093 15.8023 18.6402C15.0714 18.6734 14.8518 18.6806 13.0006 18.6806C11.1492 18.6806 10.9298 18.6734 10.1989 18.6402C9.52292 18.609 9.15603 18.496 8.91148 18.4011C8.58792 18.2755 8.35681 18.1252 8.11414 17.8826C7.87147 17.6399 7.72124 17.4094 7.59529 17.0857C7.50039 16.8416 7.38728 16.4747 7.35652 15.7987C7.32329 15.0678 7.31665 14.8482 7.31665 12.9967C7.31665 11.1452 7.32329 10.9268 7.35652 10.1959C7.38743 9.51988 7.50039 9.15298 7.59529 8.90858C7.72095 8.58502 7.87147 8.35391 8.11414 8.11124C8.35681 7.86857 8.58792 7.71835 8.91148 7.59239C9.15588 7.49706 9.52292 7.38439 10.1989 7.35333C10.8385 7.32444 11.0864 7.31578 12.3786 7.31433V7.31606ZM16.6994 8.46696C16.2401 8.46696 15.8674 8.8392 15.8674 9.29868C15.8674 9.75802 16.2401 10.1307 16.6994 10.1307C17.1588 10.1307 17.5315 9.75802 17.5315 9.29868C17.5315 8.83934 17.1588 8.46667 16.6994 8.46667V8.46696ZM9.44165 12.9999C9.44165 11.0336 11.0358 9.43941 13.0021 9.43933C14.9684 9.43933 16.5623 11.0336 16.5623 12.9999C16.5623 14.9663 14.9686 16.5598 13.0022 16.5598C11.0359 16.5598 9.44165 14.9663 9.44165 12.9999Z" fill="#A9B0C6"/>
<path d="M12.9986 10.6885C14.275 10.6885 15.3098 11.7231 15.3098 12.9996C15.3098 14.2759 14.275 15.3107 12.9986 15.3107C11.7222 15.3107 10.6875 14.2759 10.6875 12.9996C10.6875 11.7231 11.7222 10.6885 12.9986 10.6885Z" fill="#A9B0C6"/>
</svg>
