<svg width="166" height="37" viewBox="0 0 166 37" fill="none" xmlns="http://www.w3.org/2000/svg">
<g clip-path="url(#clip0_0_91)">
<path d="M19.8767 36.3734C19.4255 36.3734 19.2563 36.1496 19.2563 35.7577L19.7639 29.4322H10.909L7.63776 35.7577C7.46855 36.1496 7.07375 36.3734 6.67894 36.3734H1.43367C0.869662 36.3734 0.700461 36.1496 1.03887 35.6458L19.3127 2.50639C19.482 2.11454 19.9332 1.89062 20.3279 1.89062H27.2088C27.66 1.89062 27.8856 2.05856 27.8856 2.50639L26.0809 35.6458C26.0244 36.0936 25.7424 36.3734 25.1785 36.3734H19.8767ZM21.456 9.44775L13.729 24.45H20.0459L21.456 9.44775Z" fill="#A9B0C6"/>
<path d="M51.9106 1.89062C56.5918 1.89062 58.3966 4.01781 57.1559 8.10426L55.7458 12.6945C55.6331 13.1423 55.1819 13.4222 54.7307 13.3663H49.5981C49.0906 13.3663 48.8649 13.0864 49.0341 12.6945L50.0493 9.33579C50.3878 8.21621 49.9366 7.60045 48.5829 7.60045H46.2141C45.086 7.4885 44.0145 8.21621 43.7324 9.33579L41.9277 15.2695L52.7001 18.6282C53.4333 18.9081 53.7718 19.4119 53.4898 20.1957L50.4441 30.1598C49.2034 34.1903 46.1014 36.3734 41.42 36.3734H35.8928C31.2679 36.3734 29.4066 34.1903 30.6475 30.1598L32.0011 25.6815C32.1139 25.2338 32.5651 24.9538 33.0163 25.0098H38.2051C38.7692 25.0098 38.9385 25.2338 38.7692 25.6815L37.7539 28.9842C37.4156 30.1598 37.9796 30.7196 39.2205 30.7196H41.5893C42.8864 30.7196 43.7324 30.1598 44.0708 28.9842L45.8192 23.2744L35.1031 19.8598C34.4827 19.7478 34.0315 19.1881 34.1444 18.5722C34.1444 18.4603 34.2007 18.3484 34.2572 18.2924L37.3592 8.10426C38.6 4.07379 41.7585 1.89062 46.3833 1.89062H51.9106Z" fill="#A9B0C6"/>
<path d="M76.9044 2.56947C77.0172 2.12164 77.4684 1.84174 77.9196 1.89772H83.0521C83.6725 1.89772 83.8416 2.17761 83.6725 2.56947L73.6332 35.7089C73.5204 36.1567 73.0692 36.4365 72.618 36.3806H67.429C66.9215 36.3806 66.6958 36.1006 66.865 35.7089L71.0387 21.994H64.6654L60.5481 35.7089C60.4353 36.1567 59.9841 36.4365 59.5329 36.3806H54.4568C53.8364 36.3806 53.6673 36.1006 53.8364 35.7089L63.8758 2.62545C63.9885 2.17761 64.4397 1.89772 64.891 1.95371H70.0235C70.5312 1.95371 70.7567 2.23359 70.5875 2.62545L66.4138 16.3402H72.7871L76.9044 2.56947Z" fill="#A9B0C6"/>
<path d="M107.629 1.89779C108.024 1.84181 108.363 2.12171 108.363 2.45759C108.363 2.56954 108.363 2.62552 108.363 2.73747L100.072 30.1671C98.8309 34.1975 95.7289 36.3807 91.0476 36.3807H85.464C80.7827 36.3807 78.9779 34.1975 80.2187 30.1671L88.5096 2.73747C88.7353 2.23367 89.2428 1.89779 89.8068 1.89779H94.5445C95.1085 1.89779 95.3905 2.28965 95.2777 2.73747L87.3252 28.9355C86.9867 30.1111 87.4944 30.6709 88.7916 30.6709H91.3861C92.6832 30.6709 93.5292 30.1111 93.8676 28.9355L101.82 2.73747C102.046 2.23367 102.497 1.89779 103.061 1.89779H107.629Z" fill="#A9B0C6"/>
<path d="M133.976 1.89486C134.483 1.89486 134.709 2.17476 134.54 2.56661L124.501 35.65C124.388 36.0978 123.937 36.3777 123.485 36.3218H118.578C118.127 36.3218 117.902 36.1539 117.845 35.762L115.871 17.345H115.646L110.118 35.594C110.005 36.0418 109.554 36.3218 109.103 36.2658H103.971C103.463 36.2658 103.237 35.9859 103.407 35.594L113.446 2.51062C113.559 2.0628 114.01 1.78291 114.461 1.83888H119.368C119.819 1.83888 120.045 2.00681 120.101 2.39867L122.075 20.7037H122.357L127.885 2.51062C127.997 2.0628 128.449 1.78291 128.9 1.83888H133.976V1.89486Z" fill="#A9B0C6"/>
<path d="M144.759 8.10426C145.943 4.07379 149.102 1.89062 153.783 1.89062H159.31C163.991 1.89062 165.797 4.01781 164.556 8.10426L157.844 30.1598C156.603 34.1903 153.5 36.3734 148.819 36.3734H143.293C138.611 36.3734 136.806 34.1903 138.047 30.1598L144.759 8.10426ZM149.271 30.8315C150.568 30.8315 151.414 30.2718 151.753 29.0963L157.787 9.16786C158.126 8.04827 157.618 7.43251 156.322 7.43251H153.445C152.147 7.43251 151.302 8.04827 150.963 9.16786L144.928 29.0963C144.59 30.2718 145.097 30.8315 146.394 30.8315H149.271Z" fill="#E73A28"/>
<path d="M141.308 8.10426C142.549 4.07379 145.651 1.89062 150.332 1.89062H155.86C160.541 1.89062 162.345 4.01781 161.104 8.10426L154.393 30.1598C153.152 34.1903 150.05 36.3734 145.369 36.3734H139.842C135.16 36.3734 133.356 34.1903 134.596 30.1598L141.308 8.10426ZM145.82 30.8315C147.117 30.8315 147.964 30.2718 148.301 29.0963L154.337 9.16786C154.676 8.04827 154.168 7.43251 152.87 7.43251H149.993C148.697 7.43251 147.85 8.04827 147.513 9.16786L141.477 29.0963C141.139 30.2718 141.646 30.8315 142.944 30.8315H145.82Z" fill="#FDFDFC"/>
<path d="M137.814 8.10426C139.055 4.07379 142.157 1.89062 146.839 1.89062H152.365C157.048 1.89062 158.852 4.01781 157.611 8.10426L150.899 30.1598C149.659 34.1903 146.557 36.3734 141.875 36.3734H136.348C131.667 36.3734 129.862 34.1903 131.103 30.1598L137.814 8.10426ZM142.383 30.8315C143.68 30.8315 144.526 30.2718 144.865 29.0963L150.899 9.16786C151.238 8.04827 150.73 7.43251 149.434 7.43251H146.557C145.259 7.43251 144.413 8.04827 144.075 9.16786L138.04 29.0963C137.702 30.2718 138.209 30.8315 139.507 30.8315H142.383Z" fill="#A9B0C6"/>
</g>
<defs>
<clipPath id="clip0_0_91">
<rect width="164.42" height="36.1931" fill="white" transform="translate(0.72583 0.433105)"/>
</clipPath>
</defs>
</svg>
