<svg width="113" height="27" viewBox="0 0 113 27" fill="none" xmlns="http://www.w3.org/2000/svg">
<g clip-path="url(#clip0_71_30)">
<path d="M13.1638 26.1737C12.8537 26.1737 12.7374 26.0161 12.7374 25.7401L13.0863 21.2855H7.00062L4.75241 25.7401C4.63612 26.0161 4.36479 26.1737 4.09345 26.1737H0.488565C0.100943 26.1737 -0.0153421 26.0161 0.217231 25.6613L12.7762 2.32389C12.8925 2.04795 13.2026 1.89026 13.4739 1.89026H18.2029C18.513 1.89026 18.668 2.00852 18.668 2.32389L17.4277 25.6613C17.3889 25.9766 17.1951 26.1737 16.8075 26.1737H13.1638ZM14.2492 7.21213L8.93873 17.777H13.2801L14.2492 7.21213Z" fill="white"/>
<path d="M35.1807 1.89026C38.3979 1.89026 39.6383 3.38826 38.7856 6.26602L37.8165 9.49857C37.739 9.81393 37.4289 10.011 37.1188 9.97162H33.5914C33.2426 9.97162 33.0875 9.77451 33.2038 9.49857L33.9015 7.13329C34.1341 6.34486 33.824 5.91123 32.8937 5.91123H31.2657C30.4904 5.83239 29.754 6.34486 29.5601 7.13329L28.3198 11.3119L35.7233 13.6772C36.2272 13.8743 36.4598 14.2291 36.266 14.781L34.1728 21.798C33.3201 24.6363 31.1882 26.1737 27.9709 26.1737H24.1722C20.9937 26.1737 19.7145 24.6363 20.5673 21.798L21.4976 18.6443C21.5751 18.3289 21.8852 18.1318 22.1953 18.1712H25.7614C26.1491 18.1712 26.2654 18.3289 26.1491 18.6443L25.4513 20.9701C25.2188 21.798 25.6064 22.1922 26.4592 22.1922H28.0872C28.9787 22.1922 29.5601 21.798 29.7927 20.9701L30.9943 16.9491L23.6295 14.5445C23.2031 14.4656 22.893 14.0715 22.9706 13.6377C22.9706 13.5589 23.0093 13.4801 23.0481 13.4407L25.18 6.26602C26.0328 3.42769 28.2035 1.89026 31.382 1.89026H35.1807Z" fill="white"/>
<path d="M52.3523 2.36331C52.4298 2.04794 52.7399 1.85083 53.05 1.89025H56.5774C57.0038 1.89025 57.12 2.08735 57.0038 2.36331L50.1041 25.7007C50.0266 26.0161 49.7165 26.2131 49.4064 26.1738H45.8402C45.4914 26.1738 45.3363 25.9766 45.4526 25.7007L48.321 16.0425H43.9409L41.1112 25.7007C41.0337 26.0161 40.7236 26.2131 40.4135 26.1738H36.9249C36.4985 26.1738 36.3823 25.9766 36.4985 25.7007L43.3982 2.40273C43.4757 2.08735 43.7858 1.89025 44.0959 1.92968H47.6233C47.9722 1.92968 48.1272 2.12678 48.0109 2.40273L45.1425 12.0609H49.5226L52.3523 2.36331Z" fill="white"/>
<path d="M73.4779 1.8903C73.7492 1.85088 73.9818 2.04799 73.9818 2.28452C73.9818 2.36336 73.9818 2.40278 73.9818 2.48162L68.2838 21.7981C67.431 24.6364 65.2991 26.1738 62.0818 26.1738H58.2444C55.0271 26.1738 53.7867 24.6364 54.6395 21.7981L60.3375 2.48162C60.4926 2.12683 60.8414 1.8903 61.229 1.8903H64.4851C64.8727 1.8903 65.0665 2.16625 64.989 2.48162L59.5235 20.9308C59.2909 21.7586 59.6398 22.1529 60.5313 22.1529H62.3144C63.2059 22.1529 63.7873 21.7586 64.0199 20.9308L69.4854 2.48162C69.6404 2.12683 69.9505 1.8903 70.3382 1.8903H73.4779Z" fill="white"/>
<path d="M91.5798 1.89024C91.9286 1.89024 92.0837 2.08736 91.9674 2.3633L85.0677 25.6613C84.9902 25.9766 84.6801 26.1737 84.37 26.1344H80.9977C80.6876 26.1344 80.5325 26.0161 80.4938 25.7401L79.1371 12.7705H78.982L75.1834 25.6218C75.1058 25.9372 74.7957 26.1344 74.4856 26.0949H70.9583C70.6094 26.0949 70.4544 25.8978 70.5706 25.6218L77.4703 2.32387C77.5478 2.00851 77.8579 1.8114 78.168 1.85082H81.5404C81.8505 1.85082 82.0055 1.96908 82.0443 2.24503L83.4009 15.1358H83.5947L87.3935 2.32387C87.471 2.00851 87.7811 1.8114 88.0912 1.85082H91.5798V1.89024Z" fill="white"/>
<path d="M98.9834 6.26602C99.7974 3.42769 101.968 1.89026 105.185 1.89026H108.984C112.201 1.89026 113.442 3.38826 112.589 6.26602L107.976 21.798C107.123 24.6363 104.991 26.1737 101.774 26.1737H97.9755C94.7583 26.1737 93.5179 24.6363 94.3707 21.798L98.9834 6.26602ZM102.084 22.271C102.976 22.271 103.557 21.8769 103.79 21.049L107.937 7.01503C108.17 6.2266 107.821 5.79296 106.93 5.79296H104.953C104.061 5.79296 103.48 6.2266 103.247 7.01503L99.0996 21.049C98.8671 21.8769 99.2159 22.271 100.107 22.271H102.084Z" fill="#E73A28"/>
<path d="M96.6189 6.26602C97.4716 3.42769 99.6036 1.89026 102.821 1.89026H106.62C109.837 1.89026 111.077 3.38826 110.224 6.26602L105.612 21.798C104.759 24.6363 102.627 26.1737 99.4097 26.1737H95.611C92.3938 26.1737 91.1534 24.6363 92.0062 21.798L96.6189 6.26602ZM99.7198 22.271C100.611 22.271 101.193 21.8769 101.425 21.049L105.573 7.01503C105.806 6.2266 105.457 5.79296 104.565 5.79296H102.588C101.697 5.79296 101.115 6.2266 100.883 7.01503L96.7351 21.049C96.5026 21.8769 96.8514 22.271 97.743 22.271H99.7198Z" fill="#FDFDFC"/>
<path d="M94.2156 6.26602C95.0684 3.42769 97.2003 1.89026 100.418 1.89026H104.216C107.434 1.89026 108.674 3.38826 107.821 6.26602L103.208 21.798C102.356 24.6363 100.224 26.1737 97.0065 26.1737H93.2078C89.9905 26.1737 88.7501 24.6363 89.6029 21.798L94.2156 6.26602ZM97.3553 22.271C98.2469 22.271 98.8283 21.8769 99.0609 21.049L103.208 7.01503C103.441 6.2266 103.092 5.79296 102.201 5.79296H100.224C99.3322 5.79296 98.7508 6.2266 98.5182 7.01503L94.3707 21.049C94.1381 21.8769 94.4869 22.271 95.3785 22.271H97.3553Z" fill="white"/>
</g>
<defs>
<clipPath id="clip0_71_30">
<rect width="113" height="25.4879" fill="white" transform="translate(0 0.859863)"/>
</clipPath>
</defs>
</svg>
