<svg xmlns="http://www.w3.org/2000/svg" width="113" height="27" viewBox="0 0 113 27" fill="none">
  <g clip-path="url(#clip0_8_121)">
    <path d="M13.1638 26.1738C12.8537 26.1738 12.7374 26.0162 12.7374 25.7402L13.0863 21.2857H7.00062L4.75241 25.7402C4.63612 26.0162 4.36479 26.1738 4.09345 26.1738H0.488565C0.100943 26.1738 -0.0153421 26.0162 0.217231 25.6614L12.7762 2.32401C12.8925 2.04807 13.2026 1.89038 13.4739 1.89038H18.2029C18.513 1.89038 18.668 2.00864 18.668 2.32401L17.4277 25.6614C17.3889 25.9768 17.1951 26.1738 16.8075 26.1738H13.1638ZM14.2492 7.21225L8.93873 17.7771H13.2801L14.2492 7.21225Z" fill="#474A53"/>
    <path d="M35.1807 1.89038C38.3979 1.89038 39.6383 3.38839 38.7856 6.26614L37.8165 9.49869C37.739 9.81405 37.4289 10.0112 37.1188 9.97174H33.5914C33.2426 9.97174 33.0875 9.77463 33.2038 9.49869L33.9015 7.13341C34.1341 6.34498 33.824 5.91135 32.8937 5.91135H31.2657C30.4904 5.83251 29.754 6.34498 29.5601 7.13341L28.3198 11.312L35.7233 13.6773C36.2272 13.8744 36.4598 14.2292 36.266 14.7812L34.1728 21.7981C33.3201 24.6364 31.1882 26.1738 27.9709 26.1738H24.1722C20.9937 26.1738 19.7145 24.6364 20.5673 21.7981L21.4976 18.6444C21.5751 18.3291 21.8852 18.1319 22.1953 18.1714H25.7614C26.1491 18.1714 26.2654 18.3291 26.1491 18.6444L25.4513 20.9702C25.2188 21.7981 25.6064 22.1923 26.4592 22.1923H28.0872C28.9787 22.1923 29.5601 21.7981 29.7927 20.9702L30.9943 16.9493L23.6295 14.5446C23.2031 14.4657 22.893 14.0716 22.9706 13.6379C22.9706 13.5591 23.0093 13.4803 23.0481 13.4408L25.18 6.26614C26.0328 3.42781 28.2035 1.89038 31.382 1.89038H35.1807Z" fill="#474A53"/>
    <path d="M52.3523 2.36331C52.4298 2.04794 52.7399 1.85083 53.05 1.89025H56.5774C57.0038 1.89025 57.12 2.08735 57.0038 2.36331L50.1041 25.7007C50.0266 26.0161 49.7165 26.2131 49.4064 26.1738H45.8402C45.4914 26.1738 45.3363 25.9766 45.4526 25.7007L48.321 16.0425H43.9409L41.1112 25.7007C41.0337 26.0161 40.7236 26.2131 40.4135 26.1738H36.9249C36.4985 26.1738 36.3823 25.9766 36.4985 25.7007L43.3982 2.40273C43.4757 2.08735 43.7858 1.89025 44.0959 1.92968H47.6233C47.9722 1.92968 48.1272 2.12678 48.0109 2.40273L45.1425 12.0609H49.5226L52.3523 2.36331Z" fill="#474A53"/>
    <path d="M73.4779 1.8903C73.7492 1.85088 73.9818 2.04799 73.9818 2.28452C73.9818 2.36336 73.9818 2.40278 73.9818 2.48162L68.2838 21.7981C67.431 24.6364 65.2991 26.1738 62.0818 26.1738H58.2444C55.0271 26.1738 53.7867 24.6364 54.6395 21.7981L60.3375 2.48162C60.4926 2.12683 60.8414 1.8903 61.229 1.8903H64.4851C64.8727 1.8903 65.0665 2.16625 64.989 2.48162L59.5235 20.9308C59.2909 21.7586 59.6398 22.1529 60.5313 22.1529H62.3144C63.2059 22.1529 63.7873 21.7586 64.0199 20.9308L69.4854 2.48162C69.6404 2.12683 69.9505 1.8903 70.3382 1.8903H73.4779Z" fill="#474A53"/>
    <path d="M91.5798 1.89037C91.9286 1.89037 92.0837 2.08748 91.9674 2.36342L85.0677 25.6614C84.9902 25.9768 84.6801 26.1738 84.37 26.1345H80.9977C80.6876 26.1345 80.5325 26.0162 80.4938 25.7402L79.1371 12.7707H78.982L75.1834 25.622C75.1058 25.9373 74.7957 26.1345 74.4856 26.095H70.9583C70.6094 26.095 70.4544 25.8979 70.5706 25.622L77.4703 2.324C77.5478 2.00863 77.8579 1.81152 78.168 1.85095H81.5404C81.8505 1.85095 82.0055 1.9692 82.0443 2.24516L83.4009 15.1359H83.5947L87.3935 2.324C87.471 2.00863 87.7811 1.81152 88.0912 1.85095H91.5798V1.89037Z" fill="#474A53"/>
    <path d="M98.9834 6.26614C99.7974 3.42781 101.968 1.89038 105.185 1.89038H108.984C112.201 1.89038 113.442 3.38839 112.589 6.26614L107.976 21.7981C107.123 24.6364 104.991 26.1738 101.774 26.1738H97.9755C94.7583 26.1738 93.5179 24.6364 94.3707 21.7981L98.9834 6.26614ZM102.084 22.2711C102.976 22.2711 103.557 21.877 103.79 21.0491L107.937 7.01515C108.17 6.22672 107.821 5.79309 106.93 5.79309H104.953C104.061 5.79309 103.48 6.22672 103.247 7.01515L99.0996 21.0491C98.8671 21.877 99.2159 22.2711 100.107 22.2711H102.084Z" fill="#E73A28"/>
    <path d="M96.6189 6.26614C97.4716 3.42781 99.6036 1.89038 102.821 1.89038H106.62C109.837 1.89038 111.077 3.38839 110.224 6.26614L105.612 21.7981C104.759 24.6364 102.627 26.1738 99.4097 26.1738H95.611C92.3938 26.1738 91.1534 24.6364 92.0062 21.7981L96.6189 6.26614ZM99.7198 22.2711C100.611 22.2711 101.193 21.877 101.425 21.0491L105.573 7.01515C105.806 6.22672 105.457 5.79309 104.565 5.79309H102.588C101.697 5.79309 101.115 6.22672 100.883 7.01515L96.7351 21.0491C96.5026 21.877 96.8514 22.2711 97.743 22.2711H99.7198Z" fill="#FDFDFC"/>
    <path d="M94.2156 6.26614C95.0684 3.42781 97.2003 1.89038 100.418 1.89038H104.216C107.434 1.89038 108.674 3.38839 107.821 6.26614L103.208 21.7981C102.356 24.6364 100.224 26.1738 97.0065 26.1738H93.2078C89.9905 26.1738 88.7501 24.6364 89.6029 21.7981L94.2156 6.26614ZM97.3553 22.2711C98.2469 22.2711 98.8283 21.877 99.0609 21.0491L103.208 7.01515C103.441 6.22672 103.092 5.79309 102.201 5.79309H100.224C99.3322 5.79309 98.7508 6.22672 98.5182 7.01515L94.3707 21.0491C94.1381 21.877 94.4869 22.2711 95.3785 22.2711H97.3553Z" fill="#474A53"/>
  </g>
  <defs>
    <clipPath id="clip0_8_121">
      <rect width="113" height="25.4879" fill="white" transform="translate(0 0.859863)"/>
    </clipPath>
  </defs>
</svg>