<svg width="31" height="31" viewBox="0 0 31 31" fill="none" xmlns="http://www.w3.org/2000/svg">
<path d="M15.2624 0C6.8323 0 0 6.8323 0 15.2624C0 23.6862 6.8323 30.5185 15.256 30.5185H15.2688C23.6989 30.5185 30.5249 23.6862 30.5249 15.2624C30.5249 6.8323 23.6926 0 15.2624 0Z" fill="#51B6FF"/>
<path d="M21.6394 9.00999L7.14393 14.5001C6.35141 14.7302 6.37698 15.5099 6.96498 15.7017L10.5952 16.8329L11.9885 21.0959C12.1547 21.5625 12.2953 21.7351 12.5829 21.7415C12.8833 21.7478 12.9984 21.6328 13.3179 21.358C13.6822 21.0128 14.2447 20.4632 15.1331 19.6004L18.9103 22.3934C19.607 22.7768 20.1119 22.5787 20.2844 21.7478L22.6492 10.0326C22.9049 9.00999 22.3041 8.7096 21.6394 9.00999ZM11.1641 16.5709L19.4216 11.3939C19.8307 11.1191 19.9585 11.4259 19.7731 11.6368L12.9217 17.798L12.5701 20.8786L11.1641 16.5709Z" fill="white"/>
</svg>
