<svg width="31" height="31" viewBox="0 0 31 31" fill="none" xmlns="http://www.w3.org/2000/svg">
<path d="M15.2624 0C6.83019 0 0 6.83019 0 15.2624C0 23.6875 6.83019 30.5177 15.2553 30.5177H15.2696C23.6947 30.5177 30.5249 23.6875 30.5249 15.2624C30.5249 6.83019 23.6875 0 15.2624 0V0Z" fill="#4EE818"/>
<path fill-rule="evenodd" clip-rule="evenodd" d="M15.671 5C10.5242 5 6.34195 9.35698 6.34195 14.7391C6.34195 16.5789 6.83295 18.2998 7.68343 19.7735L6 25L11.1643 23.27C12.497 24.0389 14.0401 24.4783 15.671 24.4783C20.8265 24.4783 25 20.1213 25 14.7391C25 9.35698 20.8265 5 15.671 5ZM15.671 22.849C14.0928 22.849 12.6285 22.3547 11.401 21.5126L8.41117 22.5103L9.3844 19.4989C8.45501 18.1533 7.90263 16.5149 7.90263 14.7391C7.90263 10.2723 11.3922 6.62929 15.671 6.62929C19.9585 6.62929 23.4393 10.2723 23.4393 14.7391C23.4393 19.2151 19.9585 22.849 15.671 22.849ZM20.0461 16.9542C19.8094 16.8169 18.6608 16.1762 18.4504 16.0847C18.2312 15.9931 18.0734 15.9382 17.9068 16.1854C17.7402 16.4233 17.2667 16.9725 17.1177 17.1281C16.9774 17.2929 16.8371 17.3021 16.6004 17.1739C16.3636 17.0366 15.6096 16.7437 14.7328 15.865C14.0489 15.1785 13.593 14.3455 13.4702 14.0892C13.3387 13.833 13.4702 13.7048 13.593 13.5858C13.6982 13.476 13.8385 13.3021 13.9612 13.1648C14.084 13.0275 14.1278 12.9268 14.2155 12.762C14.3032 12.5973 14.2681 12.4508 14.2155 12.3227C14.1541 12.1945 13.7245 10.9588 13.5404 10.4462C13.365 9.94279 13.1634 10.016 13.0231 10.016C12.8828 10.0069 12.725 9.97941 12.5671 9.97941C12.4093 9.97025 12.1463 10.0252 11.9183 10.2632C11.6904 10.5011 11.0591 11.0778 11.0152 12.3043C10.9714 13.5217 11.778 14.7391 11.892 14.913C12.006 15.0778 13.4439 17.7323 15.8288 18.8215C18.2137 19.9108 18.2224 19.5812 18.6608 19.5538C19.0992 19.5355 20.09 19.0137 20.3092 18.4371C20.5284 17.8696 20.5459 17.3661 20.4933 17.2654C20.4407 17.1556 20.2829 17.0915 20.0461 16.9542Z" fill="white"/>
</svg>
